HIERARCHY
ROOT hip
{
  OFFSET 0.0 0.0 0.0
  CHANNELS 6 Xposition Yposition Zposition Zrotation Yrotation Xrotation
  JOINT torso
  {
    OFFSET 0.0 0.0 0.0
    CHANNELS 3 Zrotation Xrotation Yrotation
    JOINT neck
    {
      OFFSET -20.11218299999996 327.95800799999995 66.30578600000035
      CHANNELS 3 Zrotation Xrotation Yrotation
      JOINT head
      {
        OFFSET 18.28939800000012 288.83178699999996 217.81652800000006
        CHANNELS 3 Zrotation Xrotation Yrotation
        End Site
        {
          OFFSET 0.0 0.0 0.0
        }
      }
    }
    JOINT left_collar
    {
      OFFSET -20.11218299999996 327.95800799999995 66.30578600000035
      CHANNELS 3 Zrotation Xrotation Yrotation
      JOINT left_upper_arm
      {
        OFFSET -127.08163400000001 -16.17407199999991 15.44799799999987
        CHANNELS 3 Zrotation Xrotation Yrotation
        JOINT left_forearm
        {
          OFFSET -234.267792 45.78796399999999 109.31286600000021
          CHANNELS 3 Zrotation Xrotation Yrotation
          JOINT left_hand
          {
            OFFSET -259.114014 -33.25433399999997 16.18847699999992
            CHANNELS 3 Zrotation Xrotation Yrotation
            End Site
            {
              OFFSET 0.0 0.0 0.0
            }
          }
        }
      }
    }
    JOINT right_collar
    {
      OFFSET -20.11218299999996 327.95800799999995 66.30578600000035
      CHANNELS 3 Zrotation Xrotation Yrotation
      JOINT right_upper_arm
      {
        OFFSET 164.513184 1.5733030000000099 4.892333999999892
        CHANNELS 3 Zrotation Xrotation Yrotation
        JOINT right_forearm
        {
          OFFSET 260.742027 48.718444999999974 144.35229500000014
          CHANNELS 3 Zrotation Xrotation Yrotation
          JOINT right_hand
          {
            OFFSET 287.85150899999996 -44.57171600000015 13.96813899999961
            CHANNELS 3 Zrotation Xrotation Yrotation
            End Site
            {
              OFFSET 0.0 0.0 0.0
            }
          }
        }
      }
    }
  }
}
MOTION
Frames: 6
Frame Time: 0.01
-237.16893596214578 260.6988854475856 398.2054662850173 -6.970642966865554 -1.9929364839989336 -27.452405201379918 -0.5461435409318156 -0.03598409768756477 0.10834504618925075 4.632173243332093 -18.39349826496017 -2.7298474020445718 0.0 0.0 0.0 2.2795057622260595 0.6188925790932929 -2.3010587876968556 27.548716648146353 16.05643287974231 -32.26452646236272 -10.094947632965505 0.44927610952602354 -26.50893586805204 0.0 0.0 0.0 -1.9378168546073216 0.08570320429873257 3.8086482813336184 -53.46536907899138 27.09721293001112 -3.8632904243549175 -34.62686196493257 14.152712469933476 24.594931956647635 0.0 0.0 0.0
-237.76911816824952 260.7475600016827 398.0380914248238 -6.970017668883404 -1.987675493452737 -27.46794872278317 -0.5504325768253857 -0.029058445173779562 0.10960565014690711 4.599162068855758 -18.362667289499065 -2.7041268837938555 0.0 0.0 0.0 2.28143634696762 0.623261820303683 -2.328594693048497 27.58346282470491 16.088730119814212 -32.290365388155465 -10.10231707223148 0.446498081158944 -26.495935151969338 0.0 0.0 0.0 -1.9384530409147394 0.08556648655591813 3.7847227977186595 -53.31976466931824 27.02753360128136 -3.852993043160433 -34.77543008919889 14.017125197250138 24.239951419565315 0.0 0.0 0.0
-238.3568186976915 260.7966847306172 397.8677959765919 -6.969949825221372 -1.9819119335740463 -27.477678402979908 -0.5551008345752012 -0.022201169981271304 0.11093858388069745 4.562047758655195 -18.327034871569033 -2.675253067956464 0.0 0.0 0.0 2.2836246268032756 0.6279936458266804 -2.358312056074335 27.619265194939864 16.121784704120657 -32.31514012467263 -10.109090919159092 0.4439045736104821 -26.48300501162458 0.0 0.0 0.0 -1.9388487337430451 0.08540174925588946 3.7590803640058614 -53.155442394136784 26.955780720779778 -3.8232540107139883 -34.90270707127647 13.880592909448673 23.897991664823202 0.0 0.0 0.0
-238.93057971780829 260.84640612962585 397.69530062013166 -6.970522352092273 -1.9756390968318338 -27.482545612234706 -0.5600429610828803 -0.015609386646180685 0.1123113269826645 4.520420440292152 -18.286753454748588 -2.6428896627907053 0.0 0.0 0.0 2.2861929414726805 0.6329895991002831 -2.3894276594824615 27.65596428144247 16.155414246507004 -32.33848928284455 -10.115407114882142 0.4414664187666695 -26.47044376430592 0.0 0.0 0.0 -1.9389699129606712 0.0852124437353214 3.7324550178187557 -52.97234438632767 26.882036891917064 -3.773527218026749 -35.009737990348455 13.743371758305347 23.568428222796776 0.0 0.0 0.0
-239.48899945381825 260.89684633619254 397.5212666655978 -6.9717948854072 -1.9688563008076359 -27.483433510131626 -0.5651515981270017 -0.009463562258788055 0.11369195385600024 4.473901882761592 -18.24200424045731 -2.606725497389555 0.0 0.0 0.0 2.289254360027217 0.6381550680991674 -2.421192694136598 27.693379221960875 16.189430652025766 -32.360147670040334 -10.121448925816988 0.439141375957032 -26.458563624641467 0.0 0.0 0.0 -1.93877394115282 0.08500103782165372 3.7055133109481124 -52.77046623539998 26.8063776882409 -3.703298965946806 -35.097610183142365 13.60570792778578 23.25064550096129 0.0 0.0 0.0
-240.0307304731593 260.94809598493157 397.3462702713187 -6.973801804069754 -1.9615684690733028 -27.48114455397506 -0.570319729314204 -0.0039224789919922445 0.1150498903869037 4.422149464647911 -18.192991077561423 -2.566477960017446 0.0 0.0 0.0 2.292910436518703 0.6434008815662818 -2.4529058588135553 27.731309750773764 16.223641777545765 -32.37994449293003 -10.127438424068883 0.4368758659988666 -26.44768469140566 0.0 0.0 0.0 -1.9382096690771224 0.08476894302983827 3.678844280975305 -52.54985696366498 26.72886515498765 -3.6121039235387045 -35.16745394166694 13.467837725855349 22.944034210789155 0.0 0.0 0.0
